STARTFONT 2.1
FONT -Adobe-ITC Avant Garde Gothic-Book-O-Normal--34-240-100-100-P-184-ISO8859-1
SIZE 24 100 100
FONTBOUNDINGBOX 41 38 -3 -7

STARTPROPERTIES 25
FONTNAME_REGISTRY ""
FAMILY_NAME "ITC Avant Garde Gothic"
FOUNDRY "Adobe"
WEIGHT_NAME "Book"
SLANT "O"
SETWIDTH_NAME "Normal"
ADD_STYLE_NAME ""
PIXEL_SIZE 34
POINT_SIZE 240
RESOLUTION_X 100
RESOLUTION_Y 100
SPACING "P"
AVERAGE_WIDTH 184
CHARSET_REGISTRY "ISO8859"
CHARSET_ENCODING "1"
CHARSET_COLLECTIONS "ASCII ISO8859-1 ADOBE-STANDARD"
FULL_NAME "ITC Avant Garde Gothic Book Oblique"
COPYRIGHT "Copyright (c) 1987 Adobe Systems, Inc., Portions Copyright 1988 Digital Equipment Corp."
CAP_HEIGHT 25
X_HEIGHT 19
WEIGHT 10
QUAD_WIDTH 22
DEFAULT_CHAR 32
FONT_DESCENT 7
FONT_ASCENT 28
ENDPROPERTIES

CHARS 190

STARTCHAR space
ENCODING 32
SWIDTH 277 0
DWIDTH 9 0
BBX 1 1 0 0
BITMAP
00
ENDCHAR

STARTCHAR exclam
ENCODING 33
SWIDTH 295 0
DWIDTH 10 0
BBX 7 25 4 0
BITMAP
0E
0E
0C
0C
0C
1C
1C
18
18
18
38
38
30
30
30
30
70
70
00
00
00
E0
E0
E0
E0
ENDCHAR

STARTCHAR quotedbl
ENCODING 34
SWIDTH 309 0
DWIDTH 10 0
BBX 7 8 5 17
BITMAP
66
66
66
66
CC
CC
CC
CC
ENDCHAR

STARTCHAR numbersign
ENCODING 35
SWIDTH 720 0
DWIDTH 18 0
BBX 18 24 2 0
BITMAP
003180
003180
006300
006300
00C600
00C600
018C00
018C00
3FFFC0
3FFFC0
031800
031800
063000
063000
FFFF00
FFFF00
0C6000
0C6000
18C000
18C000
318000
318000
630000
630000
ENDCHAR

STARTCHAR dollar
ENCODING 36
SWIDTH 554 0
DWIDTH 18 0
BBX 16 29 3 -2
BITMAP
0030
0030
0030
00F8
03FE
070E
0E07
0C07
1C07
1800
1800
1C00
0F00
07E0
01F8
003C
000E
000E
0006
E006
E00E
E00C
701C
7878
3FF0
0FC0
0600
0600
0600
ENDCHAR

STARTCHAR percent
ENCODING 37
SWIDTH 775 0
DWIDTH 25 0
BBX 22 25 4 0
BITMAP
0F8030
3FC070
70E0E0
6060C0
E061C0
C06180
C0E300
C0C700
E1C600
7F8E00
3E1C00
001800
003800
007000
0061F0
00E7F8
00CE1C
018C0C
039C0C
03180C
07181C
0E1818
0C1C38
1C0FF0
1807C0
ENDCHAR

STARTCHAR ampersand
ENCODING 38
SWIDTH 757 0
DWIDTH 25 0
BBX 22 25 3 0
BITMAP
007C00
01FE00
038700
030300
060300
060300
060700
070600
030E00
03BC1C
01F018
07C038
1FE070
3C7060
7038C0
601DC0
E00F80
C00700
C00780
C00FC0
E01DC0
6038E0
78F070
3FE038
0F8010
ENDCHAR

STARTCHAR quoteright
ENCODING 39
SWIDTH 351 0
DWIDTH 12 0
BBX 5 6 7 19
BITMAP
38
38
70
60
E0
C0
ENDCHAR

STARTCHAR parenleft
ENCODING 40
SWIDTH 369 0
DWIDTH 12 0
BBX 11 29 4 -4
BITMAP
0040
00E0
01C0
0380
0700
0E00
1C00
1800
3000
7000
6000
6000
E000
C000
C000
C000
C000
C000
C000
C000
C000
C000
E000
6000
7000
3800
1C00
0E00
0400
ENDCHAR

STARTCHAR parenright
ENCODING 41
SWIDTH 369 0
DWIDTH 12 0
BBX 11 29 1 -4
BITMAP
0400
0E00
0700
0380
01C0
01C0
00E0
00E0
0060
0060
0060
0060
0060
0060
0060
0060
00E0
00C0
01C0
0180
0380
0300
0700
0E00
1C00
3800
7000
E000
4000
ENDCHAR

STARTCHAR asterisk
ENCODING 42
SWIDTH 425 0
DWIDTH 14 0
BBX 9 9 6 16
BITMAP
3300
3300
1600
1C00
FF80
FF80
3400
6600
6600
ENDCHAR

STARTCHAR plus
ENCODING 43
SWIDTH 606 0
DWIDTH 20 0
BBX 17 17 4 2
BITMAP
006000
006000
006000
00E000
00C000
00C000
00C000
FFFF80
FFFF80
018000
018000
018000
018000
038000
030000
030000
030000
ENDCHAR

STARTCHAR comma
ENCODING 44
SWIDTH 277 0
DWIDTH 9 0
BBX 6 6 3 -2
BITMAP
1C
38
38
70
60
E0
ENDCHAR

STARTCHAR minus
ENCODING 45
SWIDTH 606 0
DWIDTH 20 0
BBX 17 2 4 10
BITMAP
FFFF80
FFFF80
ENDCHAR

STARTCHAR period
ENCODING 46
SWIDTH 277 0
DWIDTH 9 0
BBX 3 4 4 0
BITMAP
E0
E0
E0
E0
ENDCHAR

STARTCHAR slash
ENCODING 47
SWIDTH 437 0
DWIDTH 15 0
BBX 16 29 1 -4
BITMAP
0003
0003
0006
000E
000C
001C
0018
0038
0030
0070
0060
00E0
00C0
01C0
0180
0380
0300
0700
0600
0E00
0C00
1C00
1800
3000
7000
6000
E000
C000
C000
ENDCHAR

STARTCHAR zero
ENCODING 48
SWIDTH 554 0
DWIDTH 18 0
BBX 18 25 2 0
BITMAP
00FC00
03FF00
078780
0E0380
1C01C0
1801C0
3800C0
3000C0
3000C0
7000C0
6001C0
6001C0
600180
E00180
E00180
C00380
C00380
C00300
C00700
E00600
E00E00
701C00
787800
3FF000
1FC000
ENDCHAR

STARTCHAR one
ENCODING 49
SWIDTH 554 0
DWIDTH 18 0
BBX 7 25 10 0
BITMAP
FE
FE
0E
0C
0C
1C
1C
18
18
18
38
38
30
30
30
30
70
70
60
60
60
E0
E0
C0
C0
ENDCHAR

STARTCHAR two
ENCODING 50
SWIDTH 554 0
DWIDTH 18 0
BBX 18 25 2 0
BITMAP
00FE00
03FF80
078780
0E01C0
1C00C0
1800C0
3800C0
3801C0
000180
000380
000700
000E00
001C00
007800
00F000
01E000
038000
070000
0E0000
1C0000
380000
700000
E00000
FFFC00
FFFC00
ENDCHAR

STARTCHAR three
ENCODING 51
SWIDTH 554 0
DWIDTH 18 0
BBX 17 25 2 0
BITMAP
007E00
01FF00
038380
070180
060180
0E0180
000380
000300
000700
001E00
00FC00
00FC00
001E00
000600
000700
000300
000300
E00300
E00700
E00700
600E00
701E00
387800
3FF000
0FC000
ENDCHAR

STARTCHAR four
ENCODING 52
SWIDTH 554 0
DWIDTH 18 0
BBX 19 25 1 0
BITMAP
0000E0
0001E0
0003E0
0007C0
000EC0
001CC0
0039C0
0071C0
00E180
00C180
018380
038380
070300
0E0300
1C0300
380700
700700
600600
FFFFC0
FFFFC0
000E00
000C00
000C00
001C00
001C00
ENDCHAR

STARTCHAR five
ENCODING 53
SWIDTH 554 0
DWIDTH 18 0
BBX 18 25 2 0
BITMAP
03FFC0
03FFC0
030000
070000
060000
060000
0E0000
0C0000
0CF000
0FFC00
1F1E00
1C0700
180300
000380
000180
000180
000180
E00380
E00300
E00700
600E00
701C00
387800
3FF000
0FC000
ENDCHAR

STARTCHAR six
ENCODING 54
SWIDTH 554 0
DWIDTH 18 0
BBX 17 25 2 0
BITMAP
000E00
001C00
003800
007000
00E000
01C000
038000
030000
07F000
0FFC00
1E1E00
380700
700380
600380
E00180
C00180
C00180
C00380
C00700
E00700
E00E00
701C00
787800
3FF000
0FC000
ENDCHAR

STARTCHAR seven
ENCODING 55
SWIDTH 554 0
DWIDTH 18 0
BBX 17 25 4 0
BITMAP
3FFF80
3FFF80
000380
000700
000600
000E00
001C00
001800
003800
007000
006000
00E000
00C000
018000
038000
030000
060000
0E0000
1C0000
180000
380000
700000
600000
E00000
C00000
ENDCHAR

STARTCHAR eight
ENCODING 56
SWIDTH 554 0
DWIDTH 18 0
BBX 17 25 2 0
BITMAP
00F800
03FE00
078F00
0E0380
0C0180
180180
180180
180380
1C0700
0F1E00
07F800
0FFC00
1E1E00
380600
700700
600300
E00300
C00300
C00700
C00600
E00E00
601C00
787800
3FF000
0FC000
ENDCHAR

STARTCHAR nine
ENCODING 57
SWIDTH 554 0
DWIDTH 18 0
BBX 16 25 4 0
BITMAP
03F0
0FFC
1E1E
3806
3007
6003
6003
E003
C003
C007
C006
C006
E00E
701C
7C38
1FF0
07F0
00E0
01C0
0380
0300
0700
0E00
1C00
3800
ENDCHAR

STARTCHAR colon
ENCODING 58
SWIDTH 277 0
DWIDTH 9 0
BBX 5 17 4 0
BITMAP
38
38
38
38
00
00
00
00
00
00
00
00
00
E0
E0
E0
E0
ENDCHAR

STARTCHAR semicolon
ENCODING 59
SWIDTH 277 0
DWIDTH 9 0
BBX 8 19 2 -2
BITMAP
07
07
07
07
00
00
00
00
00
00
00
00
00
1C
38
38
70
60
E0
ENDCHAR

STARTCHAR less
ENCODING 60
SWIDTH 606 0
DWIDTH 20 0
BBX 18 18 4 1
BITMAP
000040
0003C0
000FC0
003E00
00F800
03E000
0F8000
3E0000
F80000
F00000
7C0000
1F0000
07C000
01E000
007800
003E00
000E00
000200
ENDCHAR

STARTCHAR equal
ENCODING 61
SWIDTH 606 0
DWIDTH 20 0
BBX 18 8 3 7
BITMAP
7FFFC0
7FFFC0
000000
000000
000000
000000
FFFF80
FFFF80
ENDCHAR

STARTCHAR greater
ENCODING 62
SWIDTH 606 0
DWIDTH 20 0
BBX 18 18 3 1
BITMAP
100000
1C0000
1F0000
078000
01E000
00F800
003E00
000F80
0003C0
0007C0
001F00
007C00
01F000
07C000
1F0000
FC0000
F00000
800000
ENDCHAR

STARTCHAR question
ENCODING 63
SWIDTH 591 0
DWIDTH 19 0
BBX 16 25 5 0
BITMAP
03F0
0FFC
1E1E
3806
7007
6003
E003
C007
0006
000E
001C
0038
0070
00E0
01C0
0380
0300
0700
0600
0000
0000
0E00
0E00
0E00
0E00
ENDCHAR

STARTCHAR at
ENCODING 64
SWIDTH 867 0
DWIDTH 29 0
BBX 26 25 4 0
BITMAP
0007C000
003FF800
00F83C00
03C00F00
07000300
0E078980
1C1FD980
3838F8C0
307070C0
60E070C0
61C0E0C0
C380E180
C380C180
C701C300
C7038300
C7038600
C7070E00
679F1C00
63FFF000
71E3C200
38000E00
1C003800
0E01F000
07FFC000
01FE0000
ENDCHAR

STARTCHAR A
ENCODING 65
SWIDTH 740 0
DWIDTH 24 0
BBX 23 25 1 0
BITMAP
000380
000380
0007C0
000EC0
000CC0
001CC0
0018E0
003060
007060
006060
00E060
00C070
018030
038030
030030
07FFF8
0FFFF8
0E0018
1C0018
18001C
38001C
70000C
60000C
E0000E
C0000E
ENDCHAR

STARTCHAR B
ENCODING 66
SWIDTH 574 0
DWIDTH 19 0
BBX 17 25 3 0
BITMAP
0FFC00
0FFF00
0C0F00
0C0380
0C0180
1C0180
1C0180
180380
180300
180700
381E00
3FFC00
3FFE00
300F00
300300
300380
700180
700180
600180
600380
600300
600F00
E07E00
FFF800
FFE000
ENDCHAR

STARTCHAR C
ENCODING 67
SWIDTH 813 0
DWIDTH 27 0
BBX 25 25 4 0
BITMAP
001FE000
007FF800
01F87C00
03C00E00
07000700
0E000700
1C000380
38000380
38000000
70000000
60000000
E0000000
E0000000
C0000000
C0000000
C0000000
C0000000
E0000000
E0000E00
60001C00
70007800
3C00F000
1F87E000
0FFF8000
03FE0000
ENDCHAR

STARTCHAR D
ENCODING 68
SWIDTH 744 0
DWIDTH 25 0
BBX 23 25 3 0
BITMAP
0FFF00
0FFFC0
0C03F0
0C0078
0C0018
1C001C
1C000C
18000C
18000E
180006
380006
380006
30000E
30000C
30000C
70001C
700038
600038
600070
6000E0
6001C0
600780
E03F00
FFFE00
FFF000
ENDCHAR

STARTCHAR E
ENCODING 69
SWIDTH 536 0
DWIDTH 18 0
BBX 18 25 3 0
BITMAP
0FFFC0
0FFFC0
0C0000
0C0000
0C0000
1C0000
1C0000
180000
180000
180000
180000
3FFE00
3FFE00
300000
300000
300000
700000
700000
600000
600000
600000
600000
E00000
FFF800
FFF800
ENDCHAR

STARTCHAR F
ENCODING 70
SWIDTH 485 0
DWIDTH 16 0
BBX 17 25 3 0
BITMAP
0FFF80
0FFF80
0C0000
0C0000
0C0000
1C0000
1C0000
180000
180000
180000
180000
3FFC00
3FFC00
300000
300000
300000
700000
700000
600000
600000
600000
600000
E00000
C00000
C00000
ENDCHAR

STARTCHAR G
ENCODING 71
SWIDTH 872 0
DWIDTH 29 0
BBX 25 25 4 0
BITMAP
001FE000
007FF800
01F07E00
03C00F00
07000700
0E000380
1C000380
38000000
30000000
70000000
60000000
E0000000
C0000000
C0000000
C07FFF80
C07FFF80
C0000380
C0000700
E0000600
60000E00
70003C00
3800F800
1F07E000
0FFF8000
03FE0000
ENDCHAR

STARTCHAR H
ENCODING 72
SWIDTH 683 0
DWIDTH 23 0
BBX 22 25 3 0
BITMAP
0E001C
0E001C
0C0018
0C0018
0C0018
1C0038
1C0038
180030
180030
180030
380070
3FFFF0
3FFFE0
300060
300060
7000E0
7000E0
6000C0
6000C0
6000C0
6000C0
6001C0
E001C0
C00180
C00180
ENDCHAR

STARTCHAR I
ENCODING 73
SWIDTH 226 0
DWIDTH 7 0
BBX 7 25 3 0
BITMAP
0E
0E
0C
0C
0C
1C
1C
18
18
18
38
38
30
30
30
30
70
70
60
60
60
E0
E0
C0
C0
ENDCHAR

STARTCHAR J
ENCODING 74
SWIDTH 482 0
DWIDTH 16 0
BBX 17 25 1 0
BITMAP
000380
000380
000300
000300
000700
000700
000700
000600
000600
000600
000E00
000E00
000C00
000C00
000C00
001C00
001C00
001800
001800
E03800
E03000
607000
79E000
3FC000
0F0000
ENDCHAR

STARTCHAR K
ENCODING 75
SWIDTH 591 0
DWIDTH 20 0
BBX 21 25 3 0
BITMAP
0E0038
0E0070
0C00E0
0C01C0
0C0380
1C0700
1C0E00
181C00
183800
187000
38E000
39C000
338000
37C000
3EC000
3CE000
787000
703000
603800
601800
601C00
600C00
E00E00
C00700
C00700
ENDCHAR

STARTCHAR L
ENCODING 76
SWIDTH 462 0
DWIDTH 15 0
BBX 12 25 3 0
BITMAP
0E00
0E00
0C00
0C00
0C00
1C00
1C00
1800
1800
1800
1800
3800
3000
3000
3000
3000
7000
6000
6000
6000
6000
6000
E000
FFF0
FFF0
ENDCHAR

STARTCHAR M
ENCODING 77
SWIDTH 919 0
DWIDTH 30 0
BBX 30 25 3 0
BITMAP
0E00007C
0F00007C
0F0000F8
0F0000D8
0D8001D8
1D800398
19800338
19C00730
18C00630
18C00C30
38C01C70
38E01870
30E03860
30607060
30606060
7070E060
7070C0E0
603180E0
603380C0
603300C0
603E00C0
E03E01C0
E01C01C0
C01C0180
C0180180
ENDCHAR

STARTCHAR N
ENCODING 78
SWIDTH 740 0
DWIDTH 24 0
BBX 24 25 3 0
BITMAP
0F0007
0F0007
0F8006
0D8006
1D8006
1DC00E
18C00E
18E00C
18600C
18700C
38300C
38381C
30181C
301C18
300C18
700E18
700638
600738
600330
6003B0
6001B0
E001F0
E001E0
C000E0
C000E0
ENDCHAR

STARTCHAR O
ENCODING 79
SWIDTH 869 0
DWIDTH 29 0
BBX 25 25 4 0
BITMAP
001FE000
007FF800
01F87C00
03C00E00
07000700
0E000700
1C000380
38000380
38000180
70000180
60000180
E0000180
E0000180
C0000380
C0000380
C0000300
C0000700
E0000600
E0000E00
60001C00
70007800
3C00F000
1F87E000
0FFF8000
03FE0000
ENDCHAR

STARTCHAR P
ENCODING 80
SWIDTH 592 0
DWIDTH 20 0
BBX 19 25 3 0
BITMAP
0FFE00
0FFF80
0C03C0
0C00C0
0C00E0
1C0060
1C0060
180060
1800E0
1800C0
1801C0
380380
380F00
3FFE00
3FF800
300000
700000
700000
600000
600000
600000
600000
E00000
C00000
C00000
ENDCHAR

STARTCHAR Q
ENCODING 81
SWIDTH 871 0
DWIDTH 29 0
BBX 27 25 4 0
BITMAP
001FF000
007FFC00
01F83E00
03C00F00
07000380
0E0001C0
1C0001C0
380000E0
380000E0
70000060
60000060
E0000060
E0000060
C00000E0
C00000C0
CFF001C0
DFFC0180
F83F0380
F0078700
7001EE00
7000FC00
3C007800
1F01FC00
0FFFDF00
01FF0700
ENDCHAR

STARTCHAR R
ENCODING 82
SWIDTH 607 0
DWIDTH 20 0
BBX 19 25 3 0
BITMAP
0FFE00
0FFF80
0C03C0
0C00C0
0C00E0
1C0060
1C0060
180060
180060
1800E0
3800C0
3801C0
300380
300F00
31FE00
71F800
70E000
607000
603000
603800
601800
601C00
E00C00
C00E00
C00600
ENDCHAR

STARTCHAR S
ENCODING 83
SWIDTH 498 0
DWIDTH 16 0
BBX 15 25 3 0
BITMAP
01F0
07FC
0E1C
1C0E
180E
380E
3000
3000
3800
1E00
1F00
07C0
01F0
0078
003C
000C
000E
0006
E006
E00E
E00C
701C
7878
3FF0
0FC0
ENDCHAR

STARTCHAR T
ENCODING 84
SWIDTH 426 0
DWIDTH 14 0
BBX 15 25 4 0
BITMAP
FFFE
FFFE
0380
0300
0300
0700
0700
0600
0600
0600
0600
0E00
0E00
0C00
0C00
0C00
1C00
1C00
1800
1800
1800
3800
3800
3000
3000
ENDCHAR

STARTCHAR U
ENCODING 85
SWIDTH 655 0
DWIDTH 22 0
BBX 20 25 4 0
BITMAP
1C0070
1C0070
180060
180060
180060
3800E0
3800E0
3000C0
3000C0
7000C0
7001C0
6001C0
600180
600180
600180
E00380
C00380
C00300
C00700
E00700
E00E00
701C00
7C7C00
3FF000
0FC000
ENDCHAR

STARTCHAR V
ENCODING 86
SWIDTH 702 0
DWIDTH 23 0
BBX 22 25 5 0
BITMAP
E0001C
E0001C
E00038
600038
600070
700060
7000E0
3000C0
3001C0
380380
380380
380700
180600
180E00
1C0C00
1C1C00
0C1800
0C3800
0E7000
0E6000
06E000
07C000
07C000
038000
038000
ENDCHAR

STARTCHAR W
ENCODING 87
SWIDTH 960 0
DWIDTH 32 0
BBX 31 25 5 0
BITMAP
E003800E
E003800E
E007800C
6007801C
600F8018
600D8038
601DC030
6019C070
6038C070
6030C060
6070C0E0
6060C0C0
60E0C1C0
60C0C180
71C0C380
7180E300
3380E700
33006700
33006600
37006E00
36006C00
3E007C00
3C007800
3C007800
3C007000
ENDCHAR

STARTCHAR X
ENCODING 88
SWIDTH 609 0
DWIDTH 20 0
BBX 24 25 1 0
BITMAP
070007
07000E
03001C
038038
018070
01C0E0
00C1C0
00E3C0
006380
007700
003E00
003C00
003800
007C00
00FC00
01CE00
038600
078700
070300
0E0380
1C0180
3801C0
7000C0
E000E0
C000E0
ENDCHAR

STARTCHAR Y
ENCODING 89
SWIDTH 592 0
DWIDTH 20 0
BBX 19 25 5 0
BITMAP
E000E0
E000C0
6001C0
700380
700700
300600
380E00
381C00
181800
1C3800
1C7000
0C6000
0CE000
0EC000
078000
078000
070000
070000
060000
060000
060000
0E0000
0E0000
0C0000
0C0000
ENDCHAR

STARTCHAR Z
ENCODING 90
SWIDTH 480 0
DWIDTH 16 0
BBX 20 25 0 0
BITMAP
07FFF0
07FFF0
000070
0000E0
0001C0
000180
000380
000700
000E00
001C00
003800
003000
007000
00E000
01C000
038000
030000
070000
0E0000
1C0000
380000
300000
700000
FFFF80
FFFF00
ENDCHAR

STARTCHAR bracketleft
ENCODING 91
SWIDTH 351 0
DWIDTH 12 0
BBX 10 27 5 -2
BITMAP
01C0
07C0
0E00
0C00
1C00
1C00
3800
3800
3000
7000
7000
6000
6000
6000
E000
E000
C000
C000
C000
C000
C000
C000
E000
6000
7000
3C00
1C00
ENDCHAR

STARTCHAR backslash
ENCODING 92
SWIDTH 605 0
DWIDTH 20 0
BBX 7 25 8 0
BITMAP
C0
C0
C0
E0
60
60
60
60
70
30
30
30
38
18
18
18
18
1C
0C
0C
0C
0C
0E
06
06
ENDCHAR

STARTCHAR bracketright
ENCODING 93
SWIDTH 351 0
DWIDTH 12 0
BBX 9 27 5 -2
BITMAP
1C00
1E00
0700
0300
0380
0180
0180
0180
0180
0180
0180
0380
0380
0300
0300
0300
0700
0700
0600
0E00
0E00
1C00
1C00
1800
3800
F000
C000
ENDCHAR

STARTCHAR asciicircum
ENCODING 94
SWIDTH 672 0
DWIDTH 20 0
BBX 18 17 3 8
BITMAP
001800
003800
007C00
006C00
00EC00
00CE00
018600
038600
070600
060700
0E0300
0C0300
180380
380380
300180
700180
E001C0
ENDCHAR

STARTCHAR underscore
ENCODING 95
SWIDTH 500 0
DWIDTH 16 0
BBX 16 2 0 -4
BITMAP
FFFF
FFFF
ENDCHAR

STARTCHAR quoteleft
ENCODING 96
SWIDTH 351 0
DWIDTH 12 0
BBX 5 6 7 19
BITMAP
E0
E0
60
70
30
38
ENDCHAR

STARTCHAR a
ENCODING 97
SWIDTH 683 0
DWIDTH 22 0
BBX 21 19 3 0
BITMAP
00FE38
03FF38
0F87B0
1E01F0
3800F0
3000F0
700060
600060
E00060
C000E0
C000E0
C000C0
E000C0
6001C0
7003C0
380F80
3E3F80
0FF980
03E180
ENDCHAR

STARTCHAR b
ENCODING 98
SWIDTH 682 0
DWIDTH 22 0
BBX 21 25 2 0
BITMAP
0E0000
0E0000
0C0000
0C0000
1C0000
1C0000
187F00
19FFC0
1BC3E0
1F0070
1E0030
3C0038
380038
380018
300018
300018
300038
700038
700070
700070
7800E0
FC03C0
EF0F80
C7FE00
C1F800
ENDCHAR

STARTCHAR c
ENCODING 99
SWIDTH 647 0
DWIDTH 21 0
BBX 19 19 3 0
BITMAP
01FE00
07FF80
0F83C0
1C00E0
3800E0
7000E0
700000
E00000
E00000
C00000
C00000
C00000
E00000
E00380
700380
780700
3E1E00
1FFC00
07F000
ENDCHAR

STARTCHAR d
ENCODING 100
SWIDTH 685 0
DWIDTH 22 0
BBX 22 25 3 0
BITMAP
00001C
00001C
000018
000018
000018
000038
01FC38
07FF30
0F0FB0
1C01F0
3800F0
7000F0
600060
E00060
E00060
C00060
C000E0
C000E0
C001C0
E001C0
6003C0
700FC0
3C3F80
1FF980
07E180
ENDCHAR

STARTCHAR e
ENCODING 101
SWIDTH 650 0
DWIDTH 21 0
BBX 19 19 3 0
BITMAP
01FC00
07FF00
0F0F80
1C01C0
3800C0
7000E0
7000E0
E00060
E00060
FFFFE0
FFFFE0
C00000
C00000
E00180
E00380
700700
3C1E00
3FFC00
0FF000
ENDCHAR

STARTCHAR f
ENCODING 102
SWIDTH 314 0
DWIDTH 10 0
BBX 11 25 4 0
BITMAP
00E0
03E0
0700
0E00
0C00
1C00
FFC0
FFC0
1800
1800
3800
3800
3000
3000
3000
3000
7000
7000
6000
6000
6000
6000
E000
E000
C000
ENDCHAR

STARTCHAR g
ENCODING 103
SWIDTH 673 0
DWIDTH 22 0
BBX 21 26 3 -7
BITMAP
01FC38
07FF38
0F07B0
1C01F0
3800F0
3000F0
700060
600060
E00060
C000E0
C000E0
C000C0
C001C0
E001C0
6003C0
780F80
3C3F80
1FF980
07E180
C00380
C00300
C00700
E00E00
783C00
3FF800
0FE000
ENDCHAR

STARTCHAR h
ENCODING 104
SWIDTH 610 0
DWIDTH 20 0
BBX 19 25 2 0
BITMAP
0E0000
0E0000
0C0000
0C0000
1C0000
1C0000
18FC00
1BFF00
1B8780
1E01C0
3C01C0
3C00E0
3800E0
3800E0
3000C0
3000C0
7001C0
7001C0
600180
600180
600180
E00380
E00380
C00300
C00300
ENDCHAR

STARTCHAR i
ENCODING 105
SWIDTH 200 0
DWIDTH 7 0
BBX 7 25 2 0
BITMAP
0E
0E
0C
0C
00
00
1C
1C
18
18
38
38
30
30
30
70
70
70
60
60
60
E0
E0
C0
C0
ENDCHAR

STARTCHAR j
ENCODING 106
SWIDTH 203 0
DWIDTH 7 0
BBX 12 31 -3 -6
BITMAP
0070
0070
0060
0060
0000
0000
00E0
00E0
00C0
00C0
01C0
01C0
0180
0180
0180
0180
0380
0380
0300
0300
0300
0700
0700
0600
0600
0E00
0C00
1C00
7800
F000
C000
ENDCHAR

STARTCHAR k
ENCODING 107
SWIDTH 502 0
DWIDTH 17 0
BBX 17 25 2 0
BITMAP
0E0000
0E0000
0E0000
0C0000
0C0000
1C0000
1C0380
180700
180E00
181C00
383800
387000
30E000
31C000
338000
370000
7F8000
7B8000
71C000
60E000
607000
E03000
C03800
C01C00
C01C00
ENDCHAR

STARTCHAR l
ENCODING 108
SWIDTH 200 0
DWIDTH 7 0
BBX 7 25 2 0
BITMAP
0E
0E
0C
0C
0C
1C
1C
18
18
18
38
38
30
30
30
30
70
70
60
60
60
E0
E0
C0
C0
ENDCHAR

STARTCHAR m
ENCODING 109
SWIDTH 938 0
DWIDTH 30 0
BBX 29 19 2 0
BITMAP
18F81F80
19FE7FE0
1B8FF0F0
1E07C070
3C038038
3C038038
38030038
30030030
30030030
70070070
70070070
60060060
60060060
60060060
60060060
E00E00E0
E00E00E0
C00C00C0
C00C00C0
ENDCHAR

STARTCHAR n
ENCODING 110
SWIDTH 610 0
DWIDTH 20 0
BBX 19 19 2 0
BITMAP
187C00
19FF00
1B8780
1E01C0
1C01C0
3C00C0
3800E0
3800E0
3000E0
3000C0
7001C0
7001C0
600180
600180
600180
E00380
E00380
C00300
C00300
ENDCHAR

STARTCHAR o
ENCODING 111
SWIDTH 655 0
DWIDTH 21 0
BBX 19 19 3 0
BITMAP
00FC00
03FF00
0F8F80
1E03C0
3800C0
3800E0
700060
600060
E00060
C00060
C000E0
C000C0
C001C0
E00380
600380
780F00
3E3E00
1FFC00
07F000
ENDCHAR

STARTCHAR p
ENCODING 112
SWIDTH 682 0
DWIDTH 22 0
BBX 22 25 1 -6
BITMAP
0C3F80
0CFFE0
0DE0F0
0D8038
1F0018
1E001C
1E000C
1C000C
1C000C
18000C
18001C
380018
380038
380030
3C0070
3E01E0
7787C0
73FF00
60FC00
600000
E00000
E00000
C00000
C00000
C00000
ENDCHAR

STARTCHAR q
ENCODING 113
SWIDTH 682 0
DWIDTH 23 0
BBX 21 25 3 -6
BITMAP
01FC38
07FF38
0F07B0
1C01F0
3800F0
3000E0
700060
600060
E00060
C00060
C00060
C000E0
E000C0
E001C0
7003C0
380FC0
3E3DC0
1FF980
07E180
000180
000380
000380
000300
000300
000300
ENDCHAR

STARTCHAR r
ENCODING 114
SWIDTH 301 0
DWIDTH 10 0
BBX 11 19 2 0
BITMAP
18E0
1BE0
1F80
1E00
1C00
3800
3800
3000
3000
3000
7000
7000
6000
6000
6000
6000
E000
C000
C000
ENDCHAR

STARTCHAR s
ENCODING 115
SWIDTH 388 0
DWIDTH 13 0
BBX 14 19 1 0
BITMAP
03E0
0FF8
0C3C
181C
181C
1800
1C00
0E00
0F00
07C0
01E0
00E0
0070
E030
E030
E070
70E0
7FC0
1F00
ENDCHAR

STARTCHAR t
ENCODING 116
SWIDTH 339 0
DWIDTH 11 0
BBX 11 25 3 0
BITMAP
0700
0700
0600
0600
0600
0E00
FFE0
FFE0
0C00
0C00
1C00
1C00
1800
1800
1800
1800
3800
3800
3000
3000
3000
7000
7000
6000
6000
ENDCHAR

STARTCHAR u
ENCODING 117
SWIDTH 608 0
DWIDTH 20 0
BBX 19 19 3 0
BITMAP
3800E0
3800E0
3000C0
3000C0
7001C0
7001C0
600180
600180
E00180
E00180
C00380
C00380
C00300
E00700
E00F00
701F00
7C7600
3FF600
0FC600
ENDCHAR

STARTCHAR v
ENCODING 118
SWIDTH 554 0
DWIDTH 18 0
BBX 17 19 4 0
BITMAP
E00380
E00380
E00700
600700
600E00
700C00
701C00
301800
303800
387000
386000
18E000
18C000
19C000
1D8000
1F8000
0F0000
0E0000
0E0000
ENDCHAR

STARTCHAR w
ENCODING 119
SWIDTH 831 0
DWIDTH 27 0
BBX 27 19 4 0
BITMAP
E00000E0
E00000E0
E00C01C0
601C0180
601C0380
703E0300
70360700
30760600
30660E00
30E60C00
30C61C00
39C73800
39873000
1B837000
1B036000
1F03E000
1E03C000
1E03C000
1C038000
ENDCHAR

STARTCHAR x
ENCODING 120
SWIDTH 480 0
DWIDTH 16 0
BBX 18 19 1 0
BITMAP
1C01C0
1C0380
0E0700
0E0E00
061C00
071800
033800
037000
01E000
01C000
03E000
07E000
0E7000
1C7000
183800
383800
701C00
E01C00
E01E00
ENDCHAR

STARTCHAR y
ENCODING 121
SWIDTH 536 0
DWIDTH 17 0
BBX 17 25 4 -6
BITMAP
E00380
E00300
E00700
600600
600E00
701C00
701800
303800
303000
307000
38E000
38C000
19C000
1B8000
1B0000
1F0000
1E0000
1C0000
1C0000
380000
380000
700000
600000
E00000
C00000
ENDCHAR

STARTCHAR z
ENCODING 122
SWIDTH 425 0
DWIDTH 14 0
BBX 16 19 0 0
BITMAP
0FFF
0FFF
0007
000E
001C
0038
0070
00E0
01C0
03C0
0380
0700
0E00
1C00
3800
7000
E000
FFFC
FFFC
ENDCHAR

STARTCHAR braceleft
ENCODING 123
SWIDTH 351 0
DWIDTH 12 0
BBX 10 30 4 -5
BITMAP
01C0
0300
0700
0600
0600
0E00
0E00
0C00
0C00
0C00
1C00
1800
1800
3000
E000
7000
3000
3800
3800
3800
3000
7000
7000
7000
6000
6000
6000
6000
2000
1000
ENDCHAR

STARTCHAR bar
ENCODING 124
SWIDTH 672 0
DWIDTH 22 0
BBX 6 25 10 0
BITMAP
0C
0C
0C
0C
1C
1C
18
18
18
38
38
30
30
30
70
70
60
60
60
E0
C0
C0
C0
C0
C0
ENDCHAR

STARTCHAR braceright
ENCODING 125
SWIDTH 351 0
DWIDTH 12 0
BBX 10 30 2 -5
BITMAP
0200
0100
0180
0180
0180
0180
0380
0380
0380
0300
0700
0700
0700
0300
0380
01C0
0300
0600
0600
0E00
0C00
0C00
0C00
1C00
1C00
1800
1800
3800
3000
E000
ENDCHAR

STARTCHAR asciitilde
ENCODING 126
SWIDTH 606 0
DWIDTH 20 0
BBX 16 5 4 8
BITMAP
1E02
3F87
7FFE
E1FC
4078
ENDCHAR

STARTCHAR exclamdown
ENCODING 161
SWIDTH 295 0
DWIDTH 10 0
BBX 7 25 3 -6
BITMAP
0E
0E
0E
0E
00
00
00
18
18
18
38
38
30
30
30
70
70
60
60
60
E0
E0
C0
C0
C0
ENDCHAR

STARTCHAR cent
ENCODING 162
SWIDTH 554 0
DWIDTH 18 0
BBX 15 21 4 2
BITMAP
0060
0060
0060
03F0
0FFC
1E1C
380E
700E
6000
E000
C000
C000
C000
C000
E038
78F0
3FE0
0F80
0600
0600
0600
ENDCHAR

STARTCHAR sterling
ENCODING 163
SWIDTH 554 0
DWIDTH 18 0
BBX 18 25 2 0
BITMAP
007C00
01FF00
03C780
070180
0E01C0
0C00C0
1C00C0
180000
180000
180000
1C0000
FFFC00
FFFC00
0E0000
070000
030000
0301C0
0301C0
030180
030380
070300
060700
0E1E00
FFFC00
FFF000
ENDCHAR

STARTCHAR currency
ENCODING 164
SWIDTH 554 0
DWIDTH 18 0
BBX 18 17 2 2
BITMAP
10F080
3BFDC0
1F1F80
1E0700
380300
380380
700180
600180
600180
600180
600380
700300
300700
380E00
7E3E00
EFF700
43C200
ENDCHAR

STARTCHAR yen
ENCODING 165
SWIDTH 554 0
DWIDTH 18 0
BBX 20 25 3 0
BITMAP
700070
700070
3000E0
3801C0
3801C0
180380
1C0700
1C0E00
0C1C00
0E1800
FE3F80
FE7F80
07E000
03C000
038000
FFFF00
FFFF00
030000
030000
030000
070000
060000
060000
060000
060000
ENDCHAR

STARTCHAR brokenbar
ENCODING 166
SWIDTH 672 0
DWIDTH 22 0
BBX 5 25 11 0
BITMAP
18
18
18
18
38
38
30
30
30
30
00
00
00
00
00
60
60
60
60
E0
E0
C0
C0
C0
C0
ENDCHAR

STARTCHAR section
ENCODING 167
SWIDTH 615 0
DWIDTH 20 0
BBX 15 29 4 -4
BITMAP
00F8
03FC
070E
0606
0C06
0C00
0E00
0700
0780
0FE0
1CF8
187C
301C
300E
3806
3806
1E0E
0F0C
07D8
01F0
00F0
0070
0038
E018
E018
7038
7870
3FE0
0F80
ENDCHAR

STARTCHAR dieresis
ENCODING 168
SWIDTH 369 0
DWIDTH 12 0
BBX 8 3 7 22
BITMAP
E7
E7
E7
ENDCHAR

STARTCHAR copyright
ENCODING 169
SWIDTH 747 0
DWIDTH 24 0
BBX 27 25 1 0
BITMAP
0007E000
003FF800
00F01E00
03C00700
07000380
0E000180
1C0F80C0
183FE0C0
307070E0
30E03060
60C00060
61C00060
C1800060
C18000E0
C18000C0
C18071C0
C1C0E180
60E1C380
607F8700
301E0E00
38001C00
1C003800
0F01F000
07FFC000
00FE0000
ENDCHAR

STARTCHAR ordfeminine
ENCODING 170
SWIDTH 369 0
DWIDTH 12 0
BBX 12 14 4 11
BITMAP
0FB0
3FF0
7070
6060
C060
C060
C0E0
E1C0
7FC0
3EC0
0000
0000
FFC0
FFC0
ENDCHAR

STARTCHAR guillemotleft
ENCODING 171
SWIDTH 425 0
DWIDTH 14 0
BBX 12 13 3 4
BITMAP
0410
0C30
1C70
38E0
71C0
E380
C300
E380
71C0
30C0
38E0
1860
1040
ENDCHAR

STARTCHAR logicalnot
ENCODING 172
SWIDTH 606 0
DWIDTH 20 0
BBX 17 9 4 4
BITMAP
FFFF80
FFFF80
000380
000300
000300
000300
000600
000600
000600
ENDCHAR

STARTCHAR hyphen
ENCODING 173
SWIDTH 332 0
DWIDTH 11 0
BBX 8 2 3 9
BITMAP
FF
FF
ENDCHAR

STARTCHAR registered
ENCODING 174
SWIDTH 747 0
DWIDTH 24 0
BBX 27 25 1 0
BITMAP
0007E000
003FF800
00F01E00
03C00700
07000380
0E000180
1C3F80C0
183FC0C0
3030E0E0
30606060
6060E060
6061C060
C07F8060
C0FE00E0
C0C600C0
C0C701C0
C1830180
61838380
61818700
30000E00
38001C00
1C003800
0F01F000
07FFC000
00FE0000
ENDCHAR

STARTCHAR macron
ENCODING 175
SWIDTH 485 0
DWIDTH 16 0
BBX 11 2 7 21
BITMAP
FFE0
FFE0
ENDCHAR

STARTCHAR degree
ENCODING 176
SWIDTH 400 0
DWIDTH 13 0
BBX 11 10 5 15
BITMAP
0F00
39C0
60C0
E060
C060
C060
C0E0
60C0
7380
1E00
ENDCHAR

STARTCHAR plusminus
ENCODING 177
SWIDTH 606 0
DWIDTH 20 0
BBX 19 19 2 0
BITMAP
001800
001800
001800
003800
003000
003000
003000
3FFFE0
3FFFE0
006000
006000
00E000
00C000
00C000
00C000
000000
000000
FFFF80
FFFF80
ENDCHAR

STARTCHAR twosuperior
ENCODING 178
SWIDTH 332 0
DWIDTH 11 0
BBX 13 15 2 10
BITMAP
03E0
0FF0
1C38
3818
3018
0038
0070
01E0
03C0
0700
1E00
3800
7000
FFE0
FFE0
ENDCHAR

STARTCHAR threesuperior
ENCODING 179
SWIDTH 332 0
DWIDTH 11 0
BBX 11 15 3 10
BITMAP
0780
1FC0
38E0
3060
0060
00C0
0780
0780
01C0
00C0
C0C0
C0C0
E1C0
7F80
3F00
ENDCHAR

STARTCHAR acute
ENCODING 180
SWIDTH 375 0
DWIDTH 13 0
BBX 8 5 8 21
BITMAP
02
0F
3E
F8
60
ENDCHAR

STARTCHAR mu
ENCODING 181
SWIDTH 608 0
DWIDTH 20 0
BBX 21 25 1 -6
BITMAP
0E0038
0E0038
0C0030
0C0030
0C0070
1C0070
1C0060
180060
180060
380060
3800E0
3000E0
3000C0
3801C0
3803C0
7C07C0
6F1F80
67FD80
63F180
600000
E00000
E00000
C00000
C00000
C00000
ENDCHAR

STARTCHAR paragraph
ENCODING 182
SWIDTH 564 0
DWIDTH 18 0
BBX 16 29 5 -4
BITMAP
07FF
1FFF
3F86
7F86
7F86
FF8E
FF8E
FF0C
FF0C
FF0C
7F1C
7F1C
1E18
0618
0618
0618
0E38
0E38
0C30
0C30
0C30
1C70
1C70
1860
1860
1860
38E0
30C0
30C0
ENDCHAR

STARTCHAR periodcentered
ENCODING 183
SWIDTH 277 0
DWIDTH 9 0
BBX 3 4 5 8
BITMAP
E0
E0
E0
E0
ENDCHAR

STARTCHAR cedilla
ENCODING 184
SWIDTH 324 0
DWIDTH 11 0
BBX 5 7 2 -7
BITMAP
20
20
70
58
08
98
F0
ENDCHAR

STARTCHAR onesuperior
ENCODING 185
SWIDTH 332 0
DWIDTH 11 0
BBX 4 15 8 10
BITMAP
F0
F0
30
30
30
60
60
60
60
60
60
C0
C0
C0
C0
ENDCHAR

STARTCHAR ordmasculine
ENCODING 186
SWIDTH 369 0
DWIDTH 12 0
BBX 11 14 4 11
BITMAP
0F80
1FC0
30E0
3060
6060
6060
60C0
70C0
3F80
1F00
0000
0000
FFC0
FFC0
ENDCHAR

STARTCHAR guillemotright
ENCODING 187
SWIDTH 425 0
DWIDTH 14 0
BBX 12 13 3 4
BITMAP
2080
71C0
71C0
38E0
1860
1C70
0C30
1C70
38E0
71C0
E380
C300
8200
ENDCHAR

STARTCHAR onequarter
ENCODING 188
SWIDTH 831 0
DWIDTH 28 0
BBX 19 25 8 0
BITMAP
F00300
F00300
300600
300E00
300C00
301800
603800
603000
607000
606000
60C060
C1C0E0
C181E0
C30360
C30660
060660
0E0CC0
0C18C0
1830C0
3860C0
30FFE0
70FFE0
600180
C00180
C00180
ENDCHAR

STARTCHAR onehalf
ENCODING 189
SWIDTH 831 0
DWIDTH 28 0
BBX 21 25 8 0
BITMAP
F00300
F00300
300600
300E00
300C00
601800
603800
603000
607000
60E000
C0C3E0
C1CFF0
C19C38
C3B818
C73018
060038
0E0070
0C01E0
1803C0
380700
301E00
703800
607000
C0FFE0
C0FFE0
ENDCHAR

STARTCHAR threequarters
ENCODING 190
SWIDTH 831 0
DWIDTH 28 0
BBX 24 25 3 0
BITMAP
07800C
1FC00C
38E018
306038
006030
00C060
0780E0
0780C0
01C1C0
00C180
C0C303
C0C707
E1C60F
7F8C1B
3F0C33
001863
003866
0070C6
006186
00E306
00C7FF
0187FF
03800C
07000C
06000C
ENDCHAR

STARTCHAR questiondown
ENCODING 191
SWIDTH 591 0
DWIDTH 19 0
BBX 16 25 5 -6
BITMAP
0070
0070
0070
0070
0000
0000
0060
00E0
00C0
01C0
0380
0700
0E00
1C00
3800
7000
6000
E003
C007
C006
E00E
601C
7878
3FF0
0FC0
ENDCHAR

STARTCHAR Agrave
ENCODING 192
SWIDTH 740 0
DWIDTH 24 0
BBX 23 31 1 0
BITMAP
000800
001E00
000F80
0003E0
0000C0
000000
000380
000380
0007C0
000EC0
000CC0
001CC0
0018E0
003060
007060
006060
00E060
00C070
018030
038030
030030
07FFF8
0FFFF8
0E0018
1C0018
18001C
38001C
70000C
60000C
E0000E
C0000E
ENDCHAR

STARTCHAR Aacute
ENCODING 193
SWIDTH 740 0
DWIDTH 24 0
BBX 23 31 1 0
BITMAP
000010
000078
0001F0
0007C0
000300
000000
000380
000380
0007C0
000EC0
000CC0
001CC0
0018E0
003060
007060
006060
00E060
00C070
018030
038030
030030
07FFF8
0FFFF8
0E0018
1C0018
18001C
38001C
70000C
60000C
E0000E
C0000E
ENDCHAR

STARTCHAR Acircumflex
ENCODING 194
SWIDTH 740 0
DWIDTH 24 0
BBX 23 31 1 0
BITMAP
0003C0
0007E0
000E70
001C38
000000
000000
000380
000380
0007C0
000EC0
000CC0
001CC0
0018E0
003060
007060
006060
00E060
00C070
018030
038030
030030
07FFF8
0FFFF8
0E0018
1C0018
18001C
38001C
70000C
60000C
E0000E
C0000E
ENDCHAR

STARTCHAR Atilde
ENCODING 195
SWIDTH 740 0
DWIDTH 24 0
BBX 23 30 1 0
BITMAP
000F10
001FF0
0011E0
000000
000000
000380
000380
0007C0
000EC0
000CC0
001CC0
0018E0
003060
007060
006060
00E060
00C070
018030
038030
030030
07FFF8
0FFFF8
0E0018
1C0018
18001C
38001C
70000C
60000C
E0000E
C0000E
ENDCHAR

STARTCHAR Adieresis
ENCODING 196
SWIDTH 740 0
DWIDTH 24 0
BBX 23 30 1 0
BITMAP
000E70
000E70
000E70
000000
000000
000380
000380
0007C0
000EC0
000CC0
001CC0
0018E0
003060
007060
006060
00E060
00C070
018030
038030
030030
07FFF8
0FFFF8
0E0018
1C0018
18001C
38001C
70000C
60000C
E0000E
C0000E
ENDCHAR

STARTCHAR Aring
ENCODING 197
SWIDTH 740 0
DWIDTH 24 0
BBX 23 31 1 0
BITMAP
000380
0006C0
000440
0006C0
000380
000000
000380
000380
0007C0
000EC0
000CC0
001CC0
0018E0
003060
007060
006060
00E060
00C070
018030
038030
030030
07FFF8
0FFFF8
0E0018
1C0018
18001C
38001C
70000C
60000C
E0000E
C0000E
ENDCHAR

STARTCHAR AE
ENCODING 198
SWIDTH 992 0
DWIDTH 32 0
BBX 35 25 1 0
BITMAP
00000FFFE0
00001FFFE0
00003F0000
0000760000
0000660000
0000C60000
0001CE0000
00038E0000
00070C0000
000E0C0000
000C0C0000
00181FFF00
00381FFF00
0070180000
00E0180000
01FFF80000
01FFF80000
0380380000
0700300000
0E00300000
1C00300000
3800300000
7000700000
E0007FFC00
E0007FFC00
ENDCHAR

STARTCHAR Ccedilla
ENCODING 199
SWIDTH 813 0
DWIDTH 27 0
BBX 25 32 4 -7
BITMAP
001FE000
007FF800
01F87C00
03C00E00
07000700
0E000700
1C000380
38000380
38000000
70000000
60000000
E0000000
E0000000
C0000000
C0000000
C0000000
C0000000
E0000000
E0000E00
60001C00
70007800
3C00F000
1F87E000
0FFF8000
01FC0000
00600000
00400000
00E00000
00B00000
00100000
01300000
01E00000
ENDCHAR

STARTCHAR Egrave
ENCODING 200
SWIDTH 536 0
DWIDTH 18 0
BBX 18 31 3 0
BITMAP
010000
03C000
01F000
007C00
001800
000000
0FFFC0
0FFFC0
0C0000
0C0000
0C0000
1C0000
1C0000
180000
180000
180000
180000
3FFE00
3FFE00
300000
300000
300000
700000
700000
600000
600000
600000
600000
E00000
FFF800
FFF800
ENDCHAR

STARTCHAR Eacute
ENCODING 201
SWIDTH 536 0
DWIDTH 18 0
BBX 18 31 3 0
BITMAP
000080
0003C0
000F80
003E00
001800
000000
0FFFC0
0FFFC0
0C0000
0C0000
0C0000
1C0000
1C0000
180000
180000
180000
180000
3FFE00
3FFE00
300000
300000
300000
700000
700000
600000
600000
600000
600000
E00000
FFF800
FFF800
ENDCHAR

STARTCHAR Ecircumflex
ENCODING 202
SWIDTH 536 0
DWIDTH 18 0
BBX 18 31 3 0
BITMAP
003C00
007E00
00E700
01C380
000000
000000
0FFFC0
0FFFC0
0C0000
0C0000
0C0000
1C0000
1C0000
180000
180000
180000
380000
3FFE00
3FFE00
300000
300000
300000
700000
700000
600000
600000
600000
600000
E00000
FFF800
FFF800
ENDCHAR

STARTCHAR Edieresis
ENCODING 203
SWIDTH 536 0
DWIDTH 18 0
BBX 18 30 3 0
BITMAP
00E700
00E700
00E700
000000
000000
0FFFC0
0FFFC0
0C0000
0C0000
0C0000
1C0000
1C0000
180000
180000
180000
180000
3FFE00
3FFE00
300000
300000
700000
700000
700000
600000
600000
600000
600000
E00000
FFF800
FFF800
ENDCHAR

STARTCHAR Igrave
ENCODING 204
SWIDTH 226 0
DWIDTH 7 0
BBX 8 31 3 0
BITMAP
20
70
7C
1F
06
00
0E
0E
0C
0C
0C
1C
1C
18
18
18
18
38
30
30
30
30
70
70
60
60
60
60
E0
E0
C0
ENDCHAR

STARTCHAR Iacute
ENCODING 205
SWIDTH 226 0
DWIDTH 7 0
BBX 12 31 3 0
BITMAP
0020
0070
01F0
07C0
0300
0000
0E00
0E00
0C00
0C00
0C00
1C00
1C00
1800
1800
1800
1800
3800
3000
3000
3000
3000
7000
7000
6000
6000
6000
6000
E000
C000
C000
ENDCHAR

STARTCHAR Icircumflex
ENCODING 206
SWIDTH 226 0
DWIDTH 7 0
BBX 11 31 3 0
BITMAP
0F00
1F80
39C0
70E0
0000
0000
0E00
0E00
0C00
0C00
0C00
1C00
1C00
1800
1800
1800
3800
3800
3000
3000
3000
3000
7000
7000
6000
6000
6000
6000
E000
C000
C000
ENDCHAR

STARTCHAR Idieresis
ENCODING 207
SWIDTH 226 0
DWIDTH 7 0
BBX 10 30 3 0
BITMAP
39C0
39C0
39C0
0000
0000
0E00
0E00
0C00
0C00
0C00
1C00
1C00
1800
1800
1800
3800
3800
3000
3000
3000
3000
7000
7000
6000
6000
6000
6000
E000
C000
C000
ENDCHAR

STARTCHAR Eth
ENCODING 208
SWIDTH 790 0
DWIDTH 25 0
BBX 24 25 2 0
BITMAP
07FF80
07FFE0
0601F8
06003C
06000C
0E000E
0E0006
0C0006
0C0007
0C0003
1C0003
FFE003
FFE007
180006
180006
38000E
38001C
30001C
300038
300070
3000E0
3003C0
701F80
7FFF00
7FF800
ENDCHAR

STARTCHAR Ntilde
ENCODING 209
SWIDTH 740 0
DWIDTH 24 0
BBX 24 30 3 0
BITMAP
001E20
003FE0
0023C0
000000
000000
0F0007
0F0007
0F8006
0D8006
1D8006
1DC00E
18C00E
18E00C
18600C
18700C
38300C
38381C
30181C
301C18
300C18
700E18
700638
600738
600330
6003B0
6001B0
E001F0
E001E0
C000E0
C000E0
ENDCHAR

STARTCHAR Ograve
ENCODING 210
SWIDTH 869 0
DWIDTH 29 0
BBX 25 31 4 0
BITMAP
00080000
001E0000
000F8000
0003E000
0000C000
00000000
001FE000
007FF800
01F87C00
03C00E00
07000700
0E000700
1C000380
38000380
38000180
70000180
60000180
E0000180
E0000180
C0000380
C0000380
C0000300
C0000700
E0000600
E0000E00
60001C00
70007800
3C00F000
1F87E000
0FFF8000
03FE0000
ENDCHAR

STARTCHAR Oacute
ENCODING 211
SWIDTH 869 0
DWIDTH 29 0
BBX 25 31 4 0
BITMAP
00002000
0000F000
0003E000
000F8000
00060000
00000000
001FE000
007FF800
01F87C00
03C00E00
07000700
0E000700
1C000380
38000380
38000180
70000180
60000180
E0000180
E0000180
C0000380
C0000380
C0000300
C0000700
E0000600
E0000E00
60001C00
70007800
3C00F000
1F87E000
0FFF8000
03FE0000
ENDCHAR

STARTCHAR Ocircumflex
ENCODING 212
SWIDTH 869 0
DWIDTH 29 0
BBX 25 31 4 0
BITMAP
00078000
000FC000
001CE000
00387000
00000000
00000000
001FE000
007FF800
01F87C00
03C00E00
07000700
0E000700
1C000380
38000380
38000180
70000180
60000180
E0000180
E0000180
C0000380
C0000380
C0000300
C0000700
E0000600
E0000E00
60001C00
70007800
3C00F000
1F87E000
0FFF8000
03FE0000
ENDCHAR

STARTCHAR Otilde
ENCODING 213
SWIDTH 869 0
DWIDTH 29 0
BBX 25 30 4 0
BITMAP
001E2000
003FE000
0023C000
00000000
00000000
001FE000
007FF800
01F87C00
03C00E00
07000700
0E000700
1C000380
38000380
38000180
70000180
60000180
E0000180
E0000180
C0000380
C0000380
C0000300
C0000700
E0000600
E0000E00
60001C00
70007800
3C00F000
1F87E000
0FFF8000
03FE0000
ENDCHAR

STARTCHAR Odieresis
ENCODING 214
SWIDTH 869 0
DWIDTH 29 0
BBX 25 30 4 0
BITMAP
001CE000
001CE000
001CE000
00000000
00000000
001FE000
007FF800
01F87C00
03C00E00
07000700
0E000700
1C000380
38000380
38000180
70000180
60000180
E0000180
E0000180
C0000380
C0000380
C0000300
C0000700
E0000600
E0000E00
60001C00
70007800
3C00F000
1F87E000
0FFF8000
03FE0000
ENDCHAR

STARTCHAR multiply
ENCODING 215
SWIDTH 606 0
DWIDTH 20 0
BBX 19 17 3 2
BITMAP
0000C0
1801E0
3C03C0
1C0700
0E0E00
071C00
03B800
01F000
01E000
03E000
077000
0E3800
1C1C00
780E00
F00F00
E00700
400200
ENDCHAR

STARTCHAR Oslash
ENCODING 216
SWIDTH 868 0
DWIDTH 28 0
BBX 27 29 3 -2
BITMAP
00000040
000000E0
000FF1C0
003FFF80
00F81F00
01E00780
03800F80
07001DC0
0E0038C0
1C0070E0
1800E060
3801C060
30038060
70070060
70060060
600E00E0
601C00C0
603801C0
60700380
70E00380
31C00700
3B800E00
1F001C00
0E007800
1FC1F000
3BFFC000
70FF0000
E0000000
40000000
ENDCHAR

STARTCHAR Ugrave
ENCODING 217
SWIDTH 655 0
DWIDTH 22 0
BBX 20 31 4 0
BITMAP
004000
00F000
007C00
001F00
000600
000000
1C0070
1C0070
180060
180060
180060
3800E0
3800E0
3000C0
3000C0
7000C0
7001C0
6001C0
600180
600180
600180
E00380
C00380
C00300
C00700
E00700
E00E00
701C00
7C7C00
3FF000
0FC000
ENDCHAR

STARTCHAR Uacute
ENCODING 218
SWIDTH 655 0
DWIDTH 22 0
BBX 20 31 4 0
BITMAP
000100
000780
001F00
007C00
003000
000000
1C0070
1C0070
180060
180060
180060
3800E0
3800E0
3000C0
3000C0
7000C0
7001C0
6001C0
600180
600180
600180
E00380
C00380
C00300
C00700
E00700
E00E00
701C00
7C7C00
3FF000
0FC000
ENDCHAR

STARTCHAR Ucircumflex
ENCODING 219
SWIDTH 655 0
DWIDTH 22 0
BBX 20 31 4 0
BITMAP
003C00
007E00
00E700
01C380
000000
000000
1C0070
1C0070
180060
180060
180060
3800E0
3800E0
3000C0
3000C0
7000C0
7001C0
6001C0
600180
600180
600180
E00380
C00380
C00300
C00700
E00700
E00E00
701C00
7C7C00
3FF000
0FC000
ENDCHAR

STARTCHAR Udieresis
ENCODING 220
SWIDTH 655 0
DWIDTH 22 0
BBX 20 30 4 0
BITMAP
00E700
00E700
00E700
000000
000000
1C0070
1C0070
180060
180060
180060
3800E0
3800E0
3000C0
3000C0
7000C0
7001C0
6001C0
600180
600180
600180
E00380
C00380
C00300
C00700
E00700
E00E00
701C00
7C7C00
3FF000
0FC000
ENDCHAR

STARTCHAR Yacute
ENCODING 221
SWIDTH 592 0
DWIDTH 20 0
BBX 19 31 5 0
BITMAP
000400
001E00
007C00
01F000
00C000
000000
E000E0
E000C0
6001C0
700380
700700
300600
380E00
381C00
181800
1C3800
1C7000
0C6000
0CE000
0EC000
078000
078000
070000
070000
060000
060000
060000
0E0000
0E0000
0C0000
0C0000
ENDCHAR

STARTCHAR Thorn
ENCODING 222
SWIDTH 592 0
DWIDTH 19 0
BBX 18 25 3 0
BITMAP
0E0000
0E0000
0C0000
0C0000
1C0000
1FFC00
1FFF00
1C0780
180180
1801C0
3800C0
3800C0
3000C0
3001C0
300180
700380
700700
701E00
7FFC00
7FF000
600000
E00000
E00000
C00000
C00000
ENDCHAR

STARTCHAR germandbls
ENCODING 223
SWIDTH 554 0
DWIDTH 18 0
BBX 16 25 2 0
BITMAP
00F8
03FC
078E
0606
0C07
0C03
1C03
1807
1806
180E
381C
39F8
31FC
301E
3006
7007
7003
6003
6003
6C07
EC06
EC0E
CE3C
C7F8
C3E0
ENDCHAR

STARTCHAR agrave
ENCODING 224
SWIDTH 683 0
DWIDTH 22 0
BBX 21 26 3 0
BITMAP
008000
01E000
00F800
003E00
000C00
000000
000000
00FE38
03FF38
0F87B0
1E01F0
3800F0
3000F0
700060
600060
E00060
C000E0
C000E0
C000C0
E000C0
6001C0
7003C0
380F80
3E3F80
0FF980
03E180
ENDCHAR

STARTCHAR aacute
ENCODING 225
SWIDTH 683 0
DWIDTH 22 0
BBX 21 26 3 0
BITMAP
000080
0003C0
000F80
003E00
001800
000000
000000
00FE38
03FF38
0F87B0
1E01F0
3800F0
3000F0
700060
600060
E00060
C000E0
C000E0
C000C0
E000C0
6001C0
7003C0
380F80
3E3F80
0FF980
03E180
ENDCHAR

STARTCHAR acircumflex
ENCODING 226
SWIDTH 683 0
DWIDTH 22 0
BBX 21 25 3 0
BITMAP
003C00
007E00
00E700
01C380
000000
000000
00FE38
03FF38
0F87B0
1E01F0
3800F0
3000F0
700060
600060
E00060
C000E0
C000E0
C000C0
E000C0
6001C0
7003C0
380F80
3E3F80
0FF980
03E180
ENDCHAR

STARTCHAR atilde
ENCODING 227
SWIDTH 683 0
DWIDTH 22 0
BBX 21 24 3 0
BITMAP
00F100
01FF00
011E00
000000
000000
00FE38
03FF38
0F87B0
1E01F0
3800F0
3000F0
700060
600060
E00060
C000E0
C000E0
C000C0
E000C0
6001C0
7003C0
380F80
3E3F80
0FF980
03E180
ENDCHAR

STARTCHAR adieresis
ENCODING 228
SWIDTH 683 0
DWIDTH 22 0
BBX 21 24 3 0
BITMAP
00E700
00E700
00E700
000000
000000
00FE38
03FF38
0F87B0
1E01F0
3800F0
3000F0
700060
600060
E00060
C000E0
C000E0
C000C0
E000C0
6001C0
7003C0
380F80
3E3F80
0FF980
03E180
ENDCHAR

STARTCHAR aring
ENCODING 229
SWIDTH 683 0
DWIDTH 22 0
BBX 21 25 3 0
BITMAP
003800
006C00
004400
006C00
003800
000000
00FC38
03FF38
0F87B0
1E01F0
3800F0
3000F0
700060
600060
E00060
C000E0
C000E0
C000C0
E000C0
6001C0
7003C0
380F80
3E3F80
0FF980
03E180
ENDCHAR

STARTCHAR ae
ENCODING 230
SWIDTH 1157 0
DWIDTH 37 0
BBX 36 19 2 0
BITMAP
00FC30FE00
03FF33FF80
0F87B783C0
1E01FE00E0
3800FC0060
3000F80070
7000780030
6000700030
E000700030
C0007FFFF0
C000FFFFF0
C000E00000
E001E00000
6001E000E0
7007E001C0
380FF00380
3E3DBC0F00
0FF99FFE00
03E187F800
ENDCHAR

STARTCHAR ccedilla
ENCODING 231
SWIDTH 647 0
DWIDTH 21 0
BBX 19 26 3 -7
BITMAP
01FE00
07FF80
0F83C0
1C00E0
3800E0
7000E0
700000
E00000
E00000
C00000
C00000
C00000
E00000
E00380
700380
780700
3E1E00
1FFC00
07F000
018000
010000
038000
02C000
004000
04C000
078000
ENDCHAR

STARTCHAR egrave
ENCODING 232
SWIDTH 650 0
DWIDTH 21 0
BBX 19 26 3 0
BITMAP
010000
03C000
01F000
007C00
001800
000000
000000
01FC00
07FF00
0F0F80
1C01C0
3800C0
7000E0
7000E0
E00060
E00060
FFFFE0
FFFFE0
C00000
C00000
E00180
E00380
700700
3C1E00
3FFC00
0FF000
ENDCHAR

STARTCHAR eacute
ENCODING 233
SWIDTH 650 0
DWIDTH 21 0
BBX 19 26 3 0
BITMAP
000400
001E00
007C00
01F000
00C000
000000
000000
01FC00
07FF00
0F0F80
1C01C0
3800C0
7000E0
7000E0
E00060
E00060
FFFFE0
FFFFE0
C00000
C00000
E00180
E00380
700700
3C1E00
3FFC00
0FF000
ENDCHAR

STARTCHAR ecircumflex
ENCODING 234
SWIDTH 650 0
DWIDTH 21 0
BBX 19 25 3 0
BITMAP
007800
00FC00
01CE00
038700
000000
000000
01FC00
07FF00
0F0F80
1C01C0
3800C0
7000E0
7000E0
E00060
E00060
FFFFE0
FFFFE0
C00000
C00000
E00180
E00380
700700
3C1E00
3FFC00
0FF000
ENDCHAR

STARTCHAR edieresis
ENCODING 235
SWIDTH 650 0
DWIDTH 21 0
BBX 19 24 3 0
BITMAP
01CE00
01CE00
01CE00
000000
000000
01FC00
07FF00
0F0F80
1C01C0
3800C0
7000E0
7000E0
E00060
E00060
FFFFE0
FFFFE0
C00000
C00000
E00180
E00380
700700
3C1E00
3FFC00
0FF000
ENDCHAR

STARTCHAR igrave
ENCODING 236
SWIDTH 200 0
DWIDTH 7 0
BBX 8 26 2 0
BITMAP
40
F0
7C
1F
06
00
00
1C
1C
18
18
38
38
30
30
30
30
70
70
60
60
60
60
E0
C0
C0
ENDCHAR

STARTCHAR iacute
ENCODING 237
SWIDTH 200 0
DWIDTH 7 0
BBX 10 26 2 0
BITMAP
0080
03C0
0F80
3E00
1800
0000
0000
1C00
1C00
1800
1800
3800
3800
3000
3000
3000
3000
7000
7000
6000
6000
6000
6000
E000
C000
C000
ENDCHAR

STARTCHAR icircumflex
ENCODING 238
SWIDTH 200 0
DWIDTH 7 0
BBX 10 25 2 0
BITMAP
1E00
3F00
7380
E1C0
0000
0000
1C00
1C00
1800
1800
3800
3800
3000
3000
3000
3000
7000
7000
6000
6000
6000
E000
E000
C000
C000
ENDCHAR

STARTCHAR idieresis
ENCODING 239
SWIDTH 200 0
DWIDTH 7 0
BBX 9 24 2 0
BITMAP
7380
7380
7380
0000
0000
1C00
1C00
1800
1800
3800
3800
3000
3000
3000
3000
7000
7000
6000
6000
6000
6000
E000
C000
C000
ENDCHAR

STARTCHAR eth
ENCODING 240
SWIDTH 655 0
DWIDTH 21 0
BBX 19 28 3 0
BITMAP
030000
07C180
01E7C0
007E00
003C00
00EE00
00C700
000380
000180
00FCC0
03FFC0
0F8FE0
1E01E0
3800E0
3800E0
700060
600060
E00060
C00060
C000E0
C000C0
C001C0
E00380
600380
780F00
3E3E00
1FFC00
07F000
ENDCHAR

STARTCHAR ntilde
ENCODING 241
SWIDTH 610 0
DWIDTH 20 0
BBX 19 24 2 0
BITMAP
007880
00FF80
008F00
000000
000000
187C00
19FF00
1B8780
1E01C0
1C01C0
3C00C0
3800E0
3800E0
3000E0
3000C0
7001C0
7001C0
600180
600180
600180
E00380
E00380
C00300
C00300
ENDCHAR

STARTCHAR ograve
ENCODING 242
SWIDTH 655 0
DWIDTH 21 0
BBX 19 26 3 0
BITMAP
010000
03C000
01F000
007C00
001800
000000
000000
00FC00
03FF00
0F8F80
1E03C0
3800C0
3800E0
700060
600060
E00060
C00060
C000E0
C000C0
C001C0
E00380
600380
780F00
3E3E00
1FFC00
07F000
ENDCHAR

STARTCHAR oacute
ENCODING 243
SWIDTH 655 0
DWIDTH 21 0
BBX 19 26 3 0
BITMAP
000200
000F00
003E00
00F800
006000
000000
000000
00FC00
03FF00
0F8F80
1E03C0
3800C0
3800E0
700060
600060
E00060
C00060
C000E0
C000C0
C001C0
E00380
600380
780F00
3E3E00
1FFC00
07F000
ENDCHAR

STARTCHAR ocircumflex
ENCODING 244
SWIDTH 655 0
DWIDTH 21 0
BBX 19 25 3 0
BITMAP
007800
00FC00
01CE00
038700
000000
000000
00FC00
03FF00
0F8F80
1E03C0
3800C0
3800E0
700060
600060
E00060
C00060
C000E0
C000C0
C001C0
E00380
600380
780F00
3E3E00
1FFC00
07F000
ENDCHAR

STARTCHAR otilde
ENCODING 245
SWIDTH 655 0
DWIDTH 21 0
BBX 19 24 3 0
BITMAP
00F100
01FF00
011E00
000000
000000
00FC00
03FF00
0F8F80
1E03C0
3800C0
3800E0
700060
600060
E00060
C00060
C000E0
C000C0
C001C0
E00380
600380
780F00
3E3E00
1FFC00
07F000
ENDCHAR

STARTCHAR odieresis
ENCODING 246
SWIDTH 655 0
DWIDTH 21 0
BBX 19 24 3 0
BITMAP
01CE00
01CE00
01CE00
000000
000000
00FC00
03FF00
0F8F80
1E03C0
3800C0
3800E0
700060
600060
E00060
C00060
C000E0
C000C0
C001C0
E00380
600380
780F00
3E3E00
1FFC00
07F000
ENDCHAR

STARTCHAR divide
ENCODING 247
SWIDTH 606 0
DWIDTH 20 0
BBX 17 16 4 3
BITMAP
00E000
00E000
00E000
000000
000000
000000
000000
FFFF80
FFFF80
000000
000000
000000
000000
038000
038000
038000
ENDCHAR

STARTCHAR oslash
ENCODING 248
SWIDTH 653 0
DWIDTH 21 0
BBX 19 20 3 0
BITMAP
000040
00FCE0
03FFC0
0F8F80
1E07C0
380EC0
381CE0
703860
603060
E06060
C0E060
C1C0E0
C380C0
C701C0
EE0380
7C0380
780F00
7E3E00
EFFC00
47F000
ENDCHAR

STARTCHAR ugrave
ENCODING 249
SWIDTH 608 0
DWIDTH 20 0
BBX 19 26 3 0
BITMAP
010000
03C000
01F000
007C00
001800
000000
000000
3800E0
3800E0
3000C0
3000C0
7001C0
7001C0
600180
600180
E00180
E00180
C00380
C00380
C00300
E00700
E00F00
701F00
7C7600
3FF600
0FC600
ENDCHAR

STARTCHAR uacute
ENCODING 250
SWIDTH 608 0
DWIDTH 20 0
BBX 19 26 3 0
BITMAP
000200
000F00
003E00
00F800
006000
000000
000000
3800E0
3800E0
3000C0
3000C0
7001C0
7001C0
600180
600180
E00180
E00180
C00380
C00380
C00300
E00700
E00F00
701F00
7C7600
3FF600
0FC600
ENDCHAR

STARTCHAR ucircumflex
ENCODING 251
SWIDTH 608 0
DWIDTH 20 0
BBX 19 25 3 0
BITMAP
007800
00FC00
01CE00
038700
000000
000000
3800E0
3800E0
3000C0
3000C0
7001C0
7001C0
600180
600180
E00180
E00180
C00380
C00380
C00300
E00700
E00F00
701F00
7C7600
3FF600
0FC600
ENDCHAR

STARTCHAR udieresis
ENCODING 252
SWIDTH 608 0
DWIDTH 20 0
BBX 19 24 3 0
BITMAP
01CE00
01CE00
01CE00
000000
000000
3800E0
3800E0
3000C0
3000C0
7001C0
7001C0
600180
600180
E00180
E00180
C00380
C00380
C00300
E00700
E00F00
701F00
7C7600
3FF600
0FC600
ENDCHAR

STARTCHAR yacute
ENCODING 253
SWIDTH 536 0
DWIDTH 17 0
BBX 17 32 4 -6
BITMAP
000800
003C00
00F800
03E000
018000
000000
000000
E00380
E00300
E00700
600600
600E00
701C00
701800
303800
303000
307000
38E000
38C000
19C000
1B8000
1B0000
1F0000
1E0000
1C0000
1C0000
380000
380000
700000
600000
E00000
C00000
ENDCHAR

STARTCHAR thorn
ENCODING 254
SWIDTH 682 0
DWIDTH 23 0
BBX 22 31 1 -6
BITMAP
070000
070000
060000
060000
060000
0E0000
0E3F80
0CFFE0
0DE0F0
0F8038
0F0018
1E001C
1C001C
1C000C
18000C
18000C
38000C
38001C
380018
3C0038
3C0070
7E01E0
77C7C0
63FF00
60FC00
600000
600000
E00000
E00000
C00000
C00000
ENDCHAR

STARTCHAR ydieresis
ENCODING 255
SWIDTH 536 0
DWIDTH 17 0
BBX 17 30 4 -6
BITMAP
073800
073800
073800
000000
000000
E00380
E00300
E00700
600600
600E00
701C00
701800
303800
303000
307000
38E000
38C000
19C000
1B8000
1B0000
1F0000
1E0000
1C0000
1C0000
380000
380000
700000
600000
E00000
C00000
ENDCHAR
ENDFONT
